<?xml version="1.0" encoding="UTF-8" standalone="no"?>
<svg xmlns="http://www.w3.org/2000/svg" width="256" height="256" viewBox="0 0 256 256">
  <defs>
    <linearGradient id="a" x1="0%" y1="0%" x2="100%" y2="100%">
      <stop offset="0%" stop-color="#00BFA5"/>
      <stop offset="100%" stop-color="#00796B"/>
    </linearGradient>
  </defs>
  <circle cx="128" cy="128" r="120" fill="url(#a)"/>
  <path fill="#FFFFFF" d="M80 80h96v16H80zM80 160h96v16H80z"/>
  <path fill="#FFFFFF" d="M128 64c-35.346 0-64 28.654-64 64 0 35.346 28.654 64 64 64 35.346 0 64-28.654 64-64 0-35.346-28.654-64-64-64zm0 16c26.51 0 48 21.49 48 48s-21.49 48-48 48-48-21.49-48-48 21.49-48 48-48z"/>
  <text x="128" y="136" font-family="Arial, sans-serif" font-size="48" font-weight="bold" text-anchor="middle" fill="#FFFFFF">∑</text>
</svg>
